<svg width="95" height="51" viewBox="0 0 95 51" fill="none" xmlns="http://www.w3.org/2000/svg">
<path opacity="0.4" d="M87.3738 18.0745V18.0745C83.0792 15.8833 77.8398 16.9571 74.7532 20.6608L74.3461 21.1494C72.7063 23.1171 70.361 24.3641 67.8127 24.6233V24.6233C64.7487 24.9349 61.987 26.7071 60.3955 29.3438V29.3438C56.7408 35.3988 48.0999 36.0618 43.7003 30.5244L41.4272 27.6635C39.0211 24.6351 35.3646 22.8702 31.4968 22.8702H28.0704C25.1087 22.8702 22.211 22.0078 19.7312 20.3884V20.3884C17.4129 18.8744 15.6006 16.7268 14.1374 14.3761C11.2875 9.79766 6.89826 4.69313 3.00001 6.08536" stroke="#D5D7F8" stroke-width="3" stroke-linecap="round"/>
<path d="M87.3738 14.2224V14.2224C83.0792 12.0312 77.8398 13.105 74.7532 16.8087L73.9712 17.7471C72.5717 19.4265 70.5701 20.4908 68.3953 20.7119V20.7119C65.086 21.0485 62.2911 23.3151 61.2785 26.4835L60.9688 27.4526C58.2764 35.8772 46.7351 36.8248 42.7047 28.9522L40.8489 25.3273C38.8661 21.4545 34.8817 19.0181 30.5308 19.0181H28.0704C25.1087 19.0181 22.211 18.1557 19.7312 16.5363V16.5363C17.4129 15.0223 15.6006 12.8747 14.1374 10.524C11.2875 5.94555 6.89825 0.841021 3 2.23325" stroke="#F14A60" stroke-width="3" stroke-linecap="round"/>
<circle cx="88.8772" cy="14.1674" r="4.12277" fill="white" stroke="#F14A60" stroke-width="3" stroke-linecap="round"/>
</svg>
