<svg width="10" height="16" viewBox="0 0 10 16" fill="none" xmlns="http://www.w3.org/2000/svg">
<path d="M0.858816 2.14514L6.54369 7.70508L0.858816 13.265L0.85172 13.2726C0.639019 13.4985 0.5 13.8012 0.5 14.1548C0.5 14.8662 1.05951 15.4102 1.75537 15.4102C2.09964 15.4102 2.40961 15.2857 2.65469 15.0417L9.22716 8.61032L9.231 8.60648C9.46962 8.36785 9.61816 8.06234 9.61816 7.70508C9.61816 7.35694 9.47637 7.03755 9.22472 6.79749L2.65321 0.358618L2.64653 0.352314C2.40437 0.123605 2.09895 0 1.75537 0C1.05951 0 0.5 0.543983 0.5 1.25537C0.5 1.59787 0.636979 1.90944 0.85172 2.1376L0.858816 2.14514Z" fill="#BFBFC0"/>
</svg>
