<svg width="99" height="52" viewBox="0 0 99 52" fill="none" xmlns="http://www.w3.org/2000/svg">
<path opacity="0.4" d="M2 42.4344L7.60943 33.5129C11.7264 26.965 21.256 26.9251 25.4277 33.4382V33.4382C29.4625 39.7376 38.5894 39.9543 42.9186 33.8535L47.3027 27.6754C52.2124 20.7564 61.7387 19.0048 68.7884 23.7248L77.0465 29.2538C83.1408 33.3342 89.8478 32.6132 91.242 25.4128C91.9484 21.7642 92.3749 17.1188 92.1879 11.4376" stroke="#D5D7F8" stroke-width="3" stroke-linecap="round"/>
<path d="M2 37.1701L5.88965 30.9838C10.472 23.6957 21.293 24.3305 24.9919 32.1044V32.1044C28.8729 40.2612 40.4157 40.4456 44.5553 32.4168L48.3864 24.9864C52.5091 16.9904 62.6765 14.3684 70.1519 19.3735L77.9497 24.5943C83.4691 28.2897 89.5944 27.7004 91.022 21.2133C91.857 17.4187 92.3936 12.4227 92.1879 6.17328" stroke="#43B077" stroke-width="3" stroke-linecap="round"/>
<ellipse cx="92.8785" cy="6.17336" rx="4.12146" ry="4.17336" fill="white" stroke="#43B077" stroke-width="3" stroke-linecap="round"/>
</svg>
